<!-- SVG图标定义 - 用于Ribbon工具栏和界面 -->
<svg xmlns="http://www.w3.org/2000/svg" style="display: none;">
  <!-- ========== 快速访问工具栏 ========== -->
  <symbol id="icon-save" viewBox="0 0 16 16">
    <path d="M2 1a1 1 0 0 0-1 1v12a1 1 0 0 0 1 1h12a1 1 0 0 0 1-1V2a1 1 0 0 0-1-1H9.5a1 1 0 0 0-1 1v7.293l2.646-2.647a.5.5 0 0 1 .708.708l-3.5 3.5a.5.5 0 0 1-.708 0l-3.5-3.5a.5.5 0 1 1 .708-.708L7.5 9.293V2a2 2 0 0 1 2-2H14a2 2 0 0 1 2 2v12a2 2 0 0 1-2 2H2a2 2 0 0 1-2-2V2a2 2 0 0 1 2-2h2.5a.5.5 0 0 1 0 1H2z"/>
  </symbol>
  
  <symbol id="icon-undo" viewBox="0 0 16 16">
    <path fill-rule="evenodd" d="M8 3a5 5 0 1 1-4.546 2.914.5.5 0 0 0-.908-.417A6 6 0 1 0 8 2v1z"/>
    <path d="M8 4.466V.534a.25.25 0 0 0-.41-.192L5.23 2.308a.25.25 0 0 0 0 .384l2.36 1.966A.25.25 0 0 0 8 4.466z"/>
  </symbol>
  
  <symbol id="icon-redo" viewBox="0 0 16 16">
    <path fill-rule="evenodd" d="M8 3a5 5 0 1 0 4.546 2.914.5.5 0 0 1 .908-.417A6 6 0 1 1 8 2v1z"/>
    <path d="M8 4.466V.534a.25.25 0 0 1 .41-.192l2.36 1.966c.12.1.12.284 0 .384L8.41 4.658A.25.25 0 0 1 8 4.466z"/>
  </symbol>
  
  <symbol id="icon-chevron-down" viewBox="0 0 16 16">
    <path fill-rule="evenodd" d="M1.646 4.646a.5.5 0 0 1 .708 0L8 10.293l5.646-5.647a.5.5 0 0 1 .708.708l-6 6a.5.5 0 0 1-.708 0l-6-6a.5.5 0 0 1 0-.708z"/>
  </symbol>

  <symbol id="icon-chevron-up" viewBox="0 0 16 16">
    <path fill-rule="evenodd" d="M7.646 4.646a.5.5 0 0 1 .708 0l6 6a.5.5 0 0 1-.708.708L8 5.707l-5.646 5.647a.5.5 0 0 1-.708-.708l6-6z"/>
  </symbol>
  
  <!-- ========== 剪贴板组 ========== -->
  <symbol id="icon-paste" viewBox="0 0 16 16">
    <path d="M10 2h4v12H2V2h4V1a1 1 0 0 1 1-1h2a1 1 0 0 1 1 1v1zM6 2h4V1H6v1zm-2 3h8v8H4V5zm1 1v6h6V6H5z"/>
  </symbol>
  
  <symbol id="icon-cut" viewBox="0 0 16 16">
    <path d="M4.5 9a2.5 2.5 0 1 0 0 5 2.5 2.5 0 0 0 0-5zm0 4a1.5 1.5 0 1 1 0-3 1.5 1.5 0 0 1 0 3zm7-4a2.5 2.5 0 1 0 0 5 2.5 2.5 0 0 0 0-5zm0 4a1.5 1.5 0 1 1 0-3 1.5 1.5 0 0 1 0 3zM4.5 0A1.5 1.5 0 0 0 3 1.5v1.384l-1 1V1.5a2.5 2.5 0 1 1 5 0v2.384l-1-1V1.5A1.5 1.5 0 0 0 4.5 0z"/>
    <path fill-rule="evenodd" d="M13.5 3a.5.5 0 0 1 .5.5v9a.5.5 0 0 1-.5.5h-3a.5.5 0 0 1 0-1h2.5V4h-2.5a.5.5 0 0 1 0-1h3z"/>
  </symbol>
  
  <symbol id="icon-copy" viewBox="0 0 16 16">
    <path d="M4 2a2 2 0 0 1 2-2h8a2 2 0 0 1 2 2v8a2 2 0 0 1-2 2H6a2 2 0 0 1-2-2V2zm2-1a1 1 0 0 0-1 1v8a1 1 0 0 0 1 1h8a1 1 0 0 0 1-1V2a1 1 0 0 0-1-1H6zM2 5a1 1 0 0 0-1 1v8a1 1 0 0 0 1 1h8a1 1 0 0 0 1-1v-1h1v1a2 2 0 0 1-2 2H2a2 2 0 0 1-2-2V6a2 2 0 0 1 2-2h1v1H2z"/>
  </symbol>
  
  <symbol id="icon-format-painter" viewBox="0 0 16 16">
    <path d="M3.5 0a.5.5 0 0 1 .5.5V1h8V.5a.5.5 0 0 1 1 0V8a.5.5 0 0 1-.5.5h-10A.5.5 0 0 1 2 8V.5a.5.5 0 0 1 1 0V1h.5V.5zM5 2v5h6V2H5zM0 9.5A1.5 1.5 0 0 1 1.5 8h13A1.5 1.5 0 0 1 16 9.5v1a1.5 1.5 0 0 1-1.5 1.5h-13A1.5 1.5 0 0 1 0 10.5v-1z"/>
  </symbol>
  
  <!-- ========== 字体组 ========== -->
  <symbol id="icon-bold" viewBox="0 0 16 16">
    <path d="M8.21 13c2.106 0 3.412-1.087 3.412-2.823 0-1.306-.984-2.283-2.324-2.386v-.055a2.176 2.176 0 0 0 1.852-2.14c0-1.51-1.162-2.46-3.014-2.46H3.843V13H8.21zM5.908 4.674h1.696c.963 0 1.517.451 1.517 1.244 0 .834-.629 1.32-1.73 1.32H5.908V4.673zm0 6.788V8.598h1.73c1.217 0 1.88.492 1.88 1.415 0 .943-.643 1.449-1.832 1.449H5.907z"/>
  </symbol>
  
  <symbol id="icon-italic" viewBox="0 0 16 16">
    <path d="M7.991 11.674L9.53 4.455c.123-.595.246-.71 1.347-.807l.11-.52H7.211l-.11.52c1.06.096 1.128.212 1.005.807L6.57 11.674c-.123.595-.246.71-1.346.806l-.11.52h3.774l.11-.52c-1.06-.095-1.129-.211-1.006-.806z"/>
  </symbol>
  
  <symbol id="icon-underline" viewBox="0 0 16 16">
    <path d="M5.313 3.136h-1.23V9.54c0 2.105 1.47 3.623 3.917 3.623s3.917-1.518 3.917-3.623V3.136h-1.23v6.323c0 1.49-.978 2.57-2.687 2.57-1.709 0-2.687-1.08-2.687-2.57V3.136z"/>
    <path d="M12.5 15h-9v-1h9v1z"/>
  </symbol>
  
  <symbol id="icon-strikethrough" viewBox="0 0 16 16">
    <path d="M6.333 5.686c0 .31.083.581.27.814H5.166a2.776 2.776 0 0 1-.099-.76c0-1.627 1.436-2.768 3.48-2.768 1.969 0 3.39 1.175 3.445 2.85h-1.23c-.11-1.08-.964-1.743-2.25-1.743-1.23 0-2.18.602-2.18 1.607zm2.194 7.478c-2.153 0-3.589-1.107-3.705-2.81h1.23c.144 1.06 1.129 1.703 2.544 1.703 1.34 0 2.31-.705 2.31-1.675 0-.827-.547-1.374-1.914-1.675L8.046 8.5H1v-1h14v1h-3.504c.468.437.675.994.675 1.697 0 1.826-1.436 2.967-3.644 2.967z"/>
  </symbol>
  
  <symbol id="icon-font-color" viewBox="0 0 16 16">
    <path d="M0 15.5A.5.5 0 0 1 .5 15h15a.5.5 0 0 1 0 1h-15a.5.5 0 0 1-.5-.5z"/>
    <path d="M9.354 4.354l-3.5 3.5a.5.5 0 0 1-.708 0l-3.5-3.5a.5.5 0 0 1 .708-.708L5.5 6.793l3.146-3.147a.5.5 0 0 1 .708.708z"/>
  </symbol>
  
  <symbol id="icon-highlight" viewBox="0 0 16 16">
    <path d="M12.5 5h-1a.5.5 0 0 0-.5.5V6h-1V5.5a.5.5 0 0 0-1 0V6H8V5.5a.5.5 0 0 0-1 0V6H6V5.5a.5.5 0 0 0-1 0V6H4V5.5a.5.5 0 0 0-1 0V6h-.5A1.5 1.5 0 0 0 1 7.5v6A1.5 1.5 0 0 0 2.5 15h11a1.5 1.5 0 0 0 1.5-1.5v-6A1.5 1.5 0 0 0 13.5 6H13V5.5a.5.5 0 0 0-.5-.5zm1 8.5a.5.5 0 0 1-.5.5h-11a.5.5 0 0 1-.5-.5v-6a.5.5 0 0 1 .5-.5h11a.5.5 0 0 1 .5.5v6z"/>
    <rect x="3" y="8" width="10" height="5" rx="1"/>
  </symbol>
  
  <symbol id="icon-font-increase" viewBox="0 0 16 16">
    <path d="M0.5 4v3h1v-3H4V3H1.5V0h-1v3H-2v1h2.5zm4.5 8.5v-1h11v1h-11z"/>
    <path d="M5.527 10.273L6.693 7h.632l1.146 3.273h-.67l-.287-.85h-1.176l-.287.85h-.524zm1.743-1.324h.98L7.693 7.364h-.02l-.403 1.585z"/>
  </symbol>
  
  <symbol id="icon-font-decrease" viewBox="0 0 16 16">
    <path d="M0.5 4v-1h3v1h-3zm4.5 8.5v-1h11v1h-11z"/>
    <path d="M5.527 10.273L6.693 7h.632l1.146 3.273h-.67l-.287-.85h-1.176l-.287.85h-.524zm1.743-1.324h.98L7.693 7.364h-.02l-.403 1.585z"/>
  </symbol>
  
  <!-- ========== 段落组 ========== -->
  <symbol id="icon-bullet-list" viewBox="0 0 16 16">
    <path fill-rule="evenodd" d="M5 11.5a.5.5 0 0 1 .5-.5h9a.5.5 0 0 1 0 1h-9a.5.5 0 0 1-.5-.5zm0-4a.5.5 0 0 1 .5-.5h9a.5.5 0 0 1 0 1h-9a.5.5 0 0 1-.5-.5zm0-4a.5.5 0 0 1 .5-.5h9a.5.5 0 0 1 0 1h-9a.5.5 0 0 1-.5-.5zm-3 1a1 1 0 1 0 0-2 1 1 0 0 0 0 2zm0 4a1 1 0 1 0 0-2 1 1 0 0 0 0 2zm0 4a1 1 0 1 0 0-2 1 1 0 0 0 0 2z"/>
  </symbol>
  
  <symbol id="icon-numbered-list" viewBox="0 0 16 16">
    <path fill-rule="evenodd" d="M5 11.5a.5.5 0 0 1 .5-.5h9a.5.5 0 0 1 0 1h-9a.5.5 0 0 1-.5-.5zm0-4a.5.5 0 0 1 .5-.5h9a.5.5 0 0 1 0 1h-9a.5.5 0 0 1-.5-.5zm0-4a.5.5 0 0 1 .5-.5h9a.5.5 0 0 1 0 1h-9a.5.5 0 0 1-.5-.5z"/>
    <path d="M1.713 11.865v-.474H2c.217 0 .363-.137.363-.317 0-.185-.158-.31-.361-.31-.223 0-.367.152-.373.31h-.59c.016-.467.373-.787.986-.787.588-.002.954.291.957.703a.595.595 0 0 1-.492.594v.033a.615.615 0 0 1 .569.631c.003.533-.502.8-1.051.8-.656 0-1-.37-1.008-.794h.582c.008.178.186.306.422.309.254 0 .424-.145.422-.35-.002-.195-.155-.348-.414-.348h-.3zm-.004-4.699h-.604v-.035c0-.408.295-.844.958-.844.583 0 .96.326.96.756 0 .389-.257.617-.476.848l-.537.572v.03h1.054V9H1.143v-.395l.957-.99c.138-.142.293-.304.293-.508 0-.18-.147-.32-.342-.32a.33.33 0 0 0-.342.338v.041z"/>
  </symbol>
  
  <symbol id="icon-align-left" viewBox="0 0 16 16">
    <path fill-rule="evenodd" d="M2 12.5a.5.5 0 0 1 .5-.5h7a.5.5 0 0 1 0 1h-7a.5.5 0 0 1-.5-.5zm0-3a.5.5 0 0 1 .5-.5h11a.5.5 0 0 1 0 1h-11a.5.5 0 0 1-.5-.5zm0-3a.5.5 0 0 1 .5-.5h7a.5.5 0 0 1 0 1h-7a.5.5 0 0 1-.5-.5zm0-3a.5.5 0 0 1 .5-.5h11a.5.5 0 0 1 0 1h-11a.5.5 0 0 1-.5-.5z"/>
  </symbol>
  
  <symbol id="icon-align-center" viewBox="0 0 16 16">
    <path fill-rule="evenodd" d="M4 12.5a.5.5 0 0 1 .5-.5h7a.5.5 0 0 1 0 1h-7a.5.5 0 0 1-.5-.5zm-2-3a.5.5 0 0 1 .5-.5h11a.5.5 0 0 1 0 1h-11a.5.5 0 0 1-.5-.5zm2-3a.5.5 0 0 1 .5-.5h7a.5.5 0 0 1 0 1h-7a.5.5 0 0 1-.5-.5zm-2-3a.5.5 0 0 1 .5-.5h11a.5.5 0 0 1 0 1h-11a.5.5 0 0 1-.5-.5z"/>
  </symbol>
  
  <symbol id="icon-align-right" viewBox="0 0 16 16">
    <path fill-rule="evenodd" d="M6 12.5a.5.5 0 0 1 .5-.5h7a.5.5 0 0 1 0 1h-7a.5.5 0 0 1-.5-.5zm-4-3a.5.5 0 0 1 .5-.5h11a.5.5 0 0 1 0 1h-11a.5.5 0 0 1-.5-.5zm4-3a.5.5 0 0 1 .5-.5h7a.5.5 0 0 1 0 1h-7a.5.5 0 0 1-.5-.5zm-4-3a.5.5 0 0 1 .5-.5h11a.5.5 0 0 1 0 1h-11a.5.5 0 0 1-.5-.5z"/>
  </symbol>
  
  <symbol id="icon-align-justify" viewBox="0 0 16 16">
    <path fill-rule="evenodd" d="M2 12.5a.5.5 0 0 1 .5-.5h11a.5.5 0 0 1 0 1h-11a.5.5 0 0 1-.5-.5zm0-3a.5.5 0 0 1 .5-.5h11a.5.5 0 0 1 0 1h-11a.5.5 0 0 1-.5-.5zm0-3a.5.5 0 0 1 .5-.5h11a.5.5 0 0 1 0 1h-11a.5.5 0 0 1-.5-.5zm0-3a.5.5 0 0 1 .5-.5h11a.5.5 0 0 1 0 1h-11a.5.5 0 0 1-.5-.5z"/>
  </symbol>
  
  <symbol id="icon-line-spacing" viewBox="0 0 16 16">
    <path fill-rule="evenodd" d="M7 1a.5.5 0 0 1 .5.5v13a.5.5 0 0 1-1 0v-13A.5.5 0 0 1 7 1z"/>
    <path fill-rule="evenodd" d="M4.146 3.646a.5.5 0 0 1 .708 0L7 5.793 9.146 3.646a.5.5 0 0 1 .708.708l-3 3a.5.5 0 0 1-.708 0l-3-3a.5.5 0 0 1 0-.708zm0 8.708a.5.5 0 0 0 .708 0L7 10.207l2.146 2.147a.5.5 0 0 0 .708-.708l-3-3a.5.5 0 0 0-.708 0l-3 3a.5.5 0 0 0 0 .708z"/>
  </symbol>
  
  <symbol id="icon-indent-decrease" viewBox="0 0 16 16">
    <path fill-rule="evenodd" d="M3 8a.5.5 0 0 1 .5-.5h6.793L8.146 5.354a.5.5 0 1 1 .708-.708l3 3a.5.5 0 0 1 0 .708l-3 3a.5.5 0 0 1-.708-.708L10.293 8.5H3.5A.5.5 0 0 1 3 8z"/>
    <path fill-rule="evenodd" d="M12.5 4a.5.5 0 0 1 .5.5v7a.5.5 0 0 1-1 0v-7a.5.5 0 0 1 .5-.5z"/>
  </symbol>
  
  <symbol id="icon-indent-increase" viewBox="0 0 16 16">
    <path fill-rule="evenodd" d="M6 8a.5.5 0 0 0-.5.5H2.707l2.147 2.146a.5.5 0 1 1-.708.708l-3-3a.5.5 0 0 1 0-.708l3-3a.5.5 0 1 1 .708.708L2.707 7.5H5.5A.5.5 0 0 0 6 8z"/>
    <path fill-rule="evenodd" d="M12.5 4a.5.5 0 0 1 .5.5v7a.5.5 0 0 1-1 0v-7a.5.5 0 0 1 .5-.5z"/>
  </symbol>
  
  <!-- ========== 编辑组 ========== -->
  <symbol id="icon-search" viewBox="0 0 16 16">
    <path d="M11.742 10.344a6.5 6.5 0 1 0-1.397 1.398h-.001c.03.04.062.078.098.115l3.85 3.85a1 1 0 0 0 1.415-1.414l-3.85-3.85a1.007 1.007 0 0 0-.115-.1zM12 6.5a5.5 5.5 0 1 1-11 0 5.5 5.5 0 0 1 11 0z"/>
  </symbol>
  
  <symbol id="icon-replace" viewBox="0 0 16 16">
    <path fill-rule="evenodd" d="M11 5.5a.5.5 0 0 1 .5-.5h2.5a.5.5 0 0 1 .5.5v2.5a.5.5 0 0 1-1 0V6.5h-2a.5.5 0 0 1-.5-.5z"/>
    <path fill-rule="evenodd" d="M10.854 5.146a.5.5 0 0 1 0 .708l-3 3a.5.5 0 0 1-.708 0l-1.5-1.5a.5.5 0 1 1 .708-.708L7.5 7.793l2.646-2.647a.5.5 0 0 1 .708 0z"/>
    <path d="M5 10.5a.5.5 0 0 1-.5.5h-2.5a.5.5 0 0 1-.5-.5v-2.5a.5.5 0 0 1 1 0V9.5h2a.5.5 0 0 1 .5.5z"/>
  </symbol>
  
  <symbol id="icon-select" viewBox="0 0 16 16">
    <path d="M14 1a1 1 0 0 1 1 1v12a1 1 0 0 1-1 1H2a1 1 0 0 1-1-1V2a1 1 0 0 1 1-1h12zM2 0a2 2 0 0 0-2 2v12a2 2 0 0 0 2 2h12a2 2 0 0 0 2-2V2a2 2 0 0 0-2-2H2z"/>
    <path d="M10.97 4.97a.75.75 0 0 1 1.071 1.05l-3.992 4.99a.75.75 0 0 1-1.08.02L4.324 8.384a.75.75 0 1 1 1.06-1.06l2.094 2.093 3.473-4.425a.235.235 0 0 1 .02-.022z"/>
  </symbol>
  
  <!-- ========== 阅读控制 ========== -->
  <symbol id="icon-play" viewBox="0 0 16 16">
    <path d="M11.596 8.697l-6.363 3.692c-.54.313-1.233-.066-1.233-.697V4.308c0-.63.692-1.01 1.233-.696l6.363 3.692a.802.802 0 0 1 0 1.393z"/>
  </symbol>
  
  <symbol id="icon-pause" viewBox="0 0 16 16">
    <path d="M5.5 3.5A1.5 1.5 0 0 1 7 5v6a1.5 1.5 0 0 1-3 0V5a1.5 1.5 0 0 1 1.5-1.5zm5 0A1.5 1.5 0 0 1 12 5v6a1.5 1.5 0 0 1-3 0V5a1.5 1.5 0 0 1 1.5-1.5z"/>
  </symbol>
  
  <symbol id="icon-stop" viewBox="0 0 16 16">
    <path d="M5 3.5h6A1.5 1.5 0 0 1 12.5 5v6a1.5 1.5 0 0 1-1.5 1.5H5A1.5 1.5 0 0 1 3.5 11V5A1.5 1.5 0 0 1 5 3.5z"/>
  </symbol>
  
  <!-- ========== 窗口控制 ========== -->
  <symbol id="icon-minimize" viewBox="0 0 16 16">
    <path d="M14 8a.5.5 0 0 1-.5.5h-11a.5.5 0 0 1 0-1h11A.5.5 0 0 1 14 8z"/>
  </symbol>
  
  <symbol id="icon-maximize" viewBox="0 0 16 16">
    <path d="M1.5 1a.5.5 0 0 0-.5.5v13a.5.5 0 0 0 .5.5h13a.5.5 0 0 0 .5-.5v-13a.5.5 0 0 0-.5-.5h-13zm1 1h11v11h-11v-11z"/>
  </symbol>
  
  <symbol id="icon-restore" viewBox="0 0 16 16">
    <path d="M2 1.5A1.5 1.5 0 0 1 3.5 0h5.879a1.5 1.5 0 0 1 1.06.44l1.122 1.12A1.5 1.5 0 0 1 12 2.621V11.5A1.5 1.5 0 0 1 10.5 13h-7A1.5 1.5 0 0 1 2 11.5v-10zM3.5 1a.5.5 0 0 0-.5.5v10a.5.5 0 0 0 .5.5h7a.5.5 0 0 0 .5-.5V2.621a.5.5 0 0 0-.146-.353L9.232 1.146A.5.5 0 0 0 8.879 1H3.5z"/>
  </symbol>
  
  <symbol id="icon-close" viewBox="0 0 16 16">
    <path d="M2.146 2.854a.5.5 0 1 1 .708-.708L8 7.293l5.146-5.147a.5.5 0 0 1 .708.708L8.707 8l5.147 5.146a.5.5 0 0 1-.708.708L8 8.707l-5.146 5.147a.5.5 0 0 1-.708-.708L7.293 8 2.146 2.854z"/>
  </symbol>
  
  <!-- ========== 状态栏 ========== -->
  <symbol id="icon-page" viewBox="0 0 16 16">
    <path d="M4 0a2 2 0 0 0-2 2v12a2 2 0 0 0 2 2h8a2 2 0 0 0 2-2V2a2 2 0 0 0-2-2H4zm0 1h8a1 1 0 0 1 1 1v12a1 1 0 0 1-1 1H4a1 1 0 0 1-1-1V2a1 1 0 0 1 1-1z"/>
  </symbol>
  
  <symbol id="icon-zoom-in" viewBox="0 0 16 16">
    <path fill-rule="evenodd" d="M6.5 12a5.5 5.5 0 1 0 0-11 5.5 5.5 0 0 0 0 11zM13 6.5a6.5 6.5 0 1 1-13 0 6.5 6.5 0 0 1 13 0z"/>
    <path d="M10.344 11.742c.03.04.062.078.098.115l3.85 3.85a1 1 0 0 0 1.415-1.414l-3.85-3.85a1.007 1.007 0 0 0-.115-.1 6.538 6.538 0 0 1-1.398 1.4z"/>
    <path fill-rule="evenodd" d="M6.5 3a.5.5 0 0 1 .5.5V6h2.5a.5.5 0 0 1 0 1H7v2.5a.5.5 0 0 1-1 0V7H3.5a.5.5 0 0 1 0-1H6V3.5a.5.5 0 0 1 .5-.5z"/>
  </symbol>
  
  <symbol id="icon-zoom-out" viewBox="0 0 16 16">
    <path fill-rule="evenodd" d="M6.5 12a5.5 5.5 0 1 0 0-11 5.5 5.5 0 0 0 0 11zM13 6.5a6.5 6.5 0 1 1-13 0 6.5 6.5 0 0 1 13 0z"/>
    <path d="M10.344 11.742c.03.04.062.078.098.115l3.85 3.85a1 1 0 0 0 1.415-1.414l-3.85-3.85a1.007 1.007 0 0 0-.115-.1 6.538 6.538 0 0 1-1.398 1.4z"/>
    <path fill-rule="evenodd" d="M3 6.5a.5.5 0 0 1 .5-.5h6a.5.5 0 0 1 0 1h-6a.5.5 0 0 1-.5-.5z"/>
  </symbol>
  
  <symbol id="icon-view-page" viewBox="0 0 16 16">
    <path d="M3 0h10a2 2 0 0 1 2 2v12a2 2 0 0 1-2 2H3a2 2 0 0 1-2-2v-1h1v1a1 1 0 0 0 1 1h10a1 1 0 0 0 1-1V2a1 1 0 0 0-1-1H3a1 1 0 0 0-1 1v1H1V2a2 2 0 0 1 2-2z"/>
    <path d="M1 5v-.5a.5.5 0 0 1 1 0V5h.5a.5.5 0 0 1 0 1h-2a.5.5 0 0 1 0-1H1zm0 3v-.5a.5.5 0 0 1 1 0V8h.5a.5.5 0 0 1 0 1h-2a.5.5 0 0 1 0-1H1zm0 3v-.5a.5.5 0 0 1 1 0v.5h.5a.5.5 0 0 1 0 1h-2a.5.5 0 0 1 0-1H1z"/>
  </symbol>
  
  <symbol id="icon-view-web" viewBox="0 0 16 16">
    <path d="M14 1a1 1 0 0 1 1 1v12a1 1 0 0 1-1 1H2a1 1 0 0 1-1-1V2a1 1 0 0 1 1-1h12zM2 0a2 2 0 0 0-2 2v12a2 2 0 0 0 2 2h12a2 2 0 0 0 2-2V2a2 2 0 0 0-2-2H2z"/>
    <path d="M2 3h12v10H2V3zm1 1v8h10V4H3z"/>
  </symbol>
  
  <symbol id="icon-view-reader" viewBox="0 0 16 16">
    <path d="M4.5 12a.5.5 0 0 1-.5-.5v-9a.5.5 0 0 1 .5-.5h1.586c.063 0 .123.025.168.07l.47.47c.044.045.104.07.167.07h5.586a.5.5 0 0 1 .5.5v8a.5.5 0 0 1-.5.5h-9zm0-10a1.5 1.5 0 0 0-1.5 1.5v9a1.5 1.5 0 0 0 1.5 1.5h9a1.5 1.5 0 0 0 1.5-1.5v-8A1.5 1.5 0 0 0 13.5 3h-5.586a.5.5 0 0 1-.354-.146L7.09 2.384A1.5 1.5 0 0 0 6.086 2H4.5z"/>
  </symbol>
  
  <!-- ========== 文件 ========== -->
  <symbol id="icon-file" viewBox="0 0 16 16">
    <path d="M4 0a2 2 0 0 0-2 2v12a2 2 0 0 0 2 2h8a2 2 0 0 0 2-2V2a2 2 0 0 0-2-2H4zm0 1h8a1 1 0 0 1 1 1v12a1 1 0 0 1-1 1H4a1 1 0 0 1-1-1V2a1 1 0 0 1 1-1z"/>
  </symbol>
  
  <symbol id="icon-folder-open" viewBox="0 0 16 16">
    <path d="M.54 3.87L.5 3a2 2 0 0 1 2-2h3.672a2 2 0 0 1 1.414.586l.828.828A2 2 0 0 0 9.828 3h3.982a2 2 0 0 1 1.992 2.181l-.637 7A2 2 0 0 1 13.174 14H2.826a2 2 0 0 1-1.991-1.819l-.637-7a1.99 1.99 0 0 1 .342-1.31zM2.19 4a1 1 0 0 0-.996 1.09l.637 7a1 1 0 0 0 .995.91h10.348a1 1 0 0 0 .995-.91l.637-7A1 1 0 0 0 13.81 4H2.19zm4.69-1.707A1 1 0 0 0 6.172 2H2.5a1 1 0 0 0-1 .981l.006.139C1.72 3.042 1.95 3 2.19 3h5.396l-.707-.707z"/>
  </symbol>
  
  <symbol id="icon-bookmark" viewBox="0 0 16 16">
    <path d="M2 2a2 2 0 0 1 2-2h8a2 2 0 0 1 2 2v13.5a.5.5 0 0 1-.777.416L8 13.101l-5.223 2.815A.5.5 0 0 1 2 15.5V2zm2-1a1 1 0 0 0-1 1v12.566l4.723-2.482a.5.5 0 0 1 .554 0L13 14.566V2a1 1 0 0 0-1-1H4z"/>
  </symbol>
  
  <symbol id="icon-info" viewBox="0 0 16 16">
    <path d="M8 15A7 7 0 1 1 8 1a7 7 0 0 1 0 14zm0 1A8 8 0 1 0 8 0a8 8 0 0 0 0 16z"/>
    <path d="m8.93 6.588-2.29.287-.082.38.45.083c.294.07.352.176.288.469l-.738 3.468c-.194.897.105 1.319.808 1.319.545 0 1.178-.252 1.465-.598l.088-.416c-.2.176-.492.246-.686.246-.275 0-.375-.193-.304-.533L8.93 6.588zM9 4.5a1 1 0 1 1-2 0 1 1 0 0 1 2 0z"/>
  </symbol>
</svg>

